<?xml version="1.0" encoding="UTF-8"?>
<svg width="10px" height="10px" viewBox="0 0 10 10" version="1.1" xmlns="http://www.w3.org/2000/svg" xmlns:xlink="http://www.w3.org/1999/xlink">
    <!-- Generator: Sketch 49.2 (51160) - http://www.bohemiancoding.com/sketch -->
    <title>Shape</title>
    <desc>Created with Sketch.</desc>
    <defs></defs>
    <g id="Discovery-(v2)" stroke="none" stroke-width="1" fill="none" fill-rule="evenodd">
        <g id="Program-(Overview)" transform="translate(-120.000000, -70.000000)" fill="#C4C6CD">
            <path d="M125.359588,70.3595877 C125.160993,70.1609929 124.846498,70.153502 124.641562,70.3584381 L124.477188,70.5228119 C124.279228,70.7207718 124.277663,71.0404477 124.465895,71.229017 L127.259105,74.027233 C127.450828,74.2192994 127.386813,74.375 127.107183,74.375 L120.499067,74.375 C120.22344,74.375 120,74.5927334 120,74.8834229 L120,75.1165771 C120,75.3973713 120.219437,75.625 120.499067,75.625 L127.107183,75.625 C127.38281,75.625 127.447337,75.7841977 127.259105,75.972767 L124.465895,78.770983 C124.274172,78.9630494 124.272252,79.272252 124.477188,79.4771881 L124.641562,79.6415619 C124.839522,79.8395218 125.155123,79.8448771 125.359588,79.6404123 L129.640412,75.3595877 C129.839007,75.1609929 129.844877,74.8448771 129.640412,74.6404123 L125.359588,70.3595877 Z" id="Shape"></path>
        </g>
    </g>
</svg>