<?xml version="1.0" encoding="UTF-8"?>
<svg width="80px" height="20px" viewBox="0 0 80 20" version="1.1" xmlns="http://www.w3.org/2000/svg" xmlns:xlink="http://www.w3.org/1999/xlink">
    <!-- Generator: Sketch 49.2 (51160) - http://www.bohemiancoding.com/sketch -->
    <title>Group 31</title>
    <desc>Created with Sketch.</desc>
    <defs></defs>
    <g id="Discovery-(v2)" stroke="none" stroke-width="1" fill="none" fill-rule="evenodd">
        <g id="Program-(Overview)" transform="translate(-29.000000, -16.000000)" fill="#FFFFFF">
            <g id="Header" transform="translate(-1.000000, 0.000000)">
                <g id="Group-31" transform="translate(30.000000, 16.000000)">
                    <path d="M3.03655427,1.46906502 C3.03655427,1.67582335 2.99617496,1.86897626 2.91541513,2.04852955 C2.83465531,2.22808284 2.72697716,2.38314926 2.59237745,2.51373347 C2.45777774,2.64431768 2.29626051,2.7476953 2.10782091,2.82386942 C1.91938132,2.90004354 1.72286869,2.93813003 1.51827713,2.93813003 C1.08755806,2.93813003 0.726836252,2.79394547 0.436100879,2.505572 C0.145365506,2.21719854 0,1.87169966 0,1.46906502 C0,1.2731887 0.0376873534,1.08547672 0.113063191,0.905923427 C0.188439028,0.726370139 0.296117181,0.571303715 0.436100879,0.440719505 C0.576084577,0.310135295 0.737601806,0.204037216 0.920657411,0.122422085 C1.10371302,0.0408069535 1.3029176,0 1.51827713,0 C1.72286869,0 1.91938132,0.0380864899 2.10782091,0.114260612 C2.29626051,0.190434735 2.45777774,0.293812351 2.59237745,0.424396561 C2.72697716,0.554980771 2.83465531,0.710047194 2.91541513,0.889600483 C2.99617496,1.06915377 3.03655427,1.26230668 3.03655427,1.46906502 Z M16.1988115,15.9935052 L16.2057138,14.7047928 L18.8321035,17.3311825 L16.1774286,19.9858574 L16.1845461,18.6569669 L0.21653383,18.6569669 L0.193822613,4.717331 L2.84273165,4.717331 L2.86544287,15.9935052 L16.1988115,15.9935052 Z M16.1131199,12.8461574 L16.1131199,8.40631649 C16.1131199,8.17779412 16.0969681,7.95743657 16.0646642,7.74523723 C16.0323603,7.53303789 15.9731373,7.35076683 15.8869935,7.19841858 C15.8008497,7.04607034 15.6850957,6.92364948 15.539728,6.83115233 C15.3943603,6.73865518 15.2032316,6.6924073 14.9663361,6.6924073 C14.7402086,6.6924073 14.5436959,6.74137565 14.3767923,6.8393138 C14.2098887,6.93725196 14.0699071,7.06783421 13.9568433,7.23106447 C13.8437795,7.39429474 13.760329,7.58200672 13.7064891,7.79420606 C13.6526492,8.00640541 13.6257297,8.22676295 13.6257297,8.45528532 L13.6257297,12.8461574 L10.9768206,12.8461574 L10.9768206,8.21044115 C10.9768206,7.7425144 10.8852942,7.37253135 10.7022386,7.10048092 C10.519183,6.82843048 10.228452,6.6924073 9.83003684,6.6924073 C9.41008574,6.6924073 9.08435933,6.86107604 8.85284783,7.19841858 C8.62133633,7.53576113 8.50558232,7.94927159 8.50558232,8.43896238 L8.50558232,12.8461574 L5.84052139,12.8461574 L5.84052139,4.717331 L8.40867101,4.717331 L8.40867101,5.84361418 C8.53788657,5.6695019 8.65902449,5.50083316 8.80439218,5.3376029 C8.94975986,5.17437263 9.12473686,5.03018806 9.32932842,4.90504486 C9.53391998,4.77990166 9.76273605,4.67924451 10.0157835,4.60307039 C10.268831,4.52689627 10.5461022,4.48880978 10.8476056,4.48880978 C11.4290763,4.48880978 11.9217038,4.60851017 12.325503,4.84791456 C12.7293021,5.08731894 13.0442607,5.43009735 13.2703882,5.87626007 C13.5395876,5.45186139 13.8841577,5.1145239 14.3041088,4.8642375 C14.7240599,4.6139511 15.2355311,4.48880978 15.8385378,4.48880978 C16.3877046,4.48880978 16.8480288,4.58946693 17.2195239,4.79078425 C17.5910191,4.99210157 17.889826,5.25326608 18.1159535,5.57428559 C18.342081,5.89530511 18.5062902,6.2544063 18.608586,6.65159994 C18.7108818,7.04879358 18.7620289,7.43781987 18.7620289,7.81869048 L18.7620289,12.8461574 L16.1131199,12.8461574 Z M30.6110513,8.74909833 C30.6110513,9.31496324 30.5249088,9.85905595 30.3526211,10.3813928 C30.1803335,10.9037296 29.9299818,11.363488 29.6015585,11.7606816 C29.2731352,12.1578752 28.8720341,12.4761695 28.3982431,12.7155739 C27.9244522,12.9549783 27.3860614,13.0746787 26.7830547,13.0746787 C26.2877278,13.0746787 25.8193278,12.9740215 25.3778408,12.7727042 C24.9363537,12.5713869 24.5917836,12.29662 24.3441201,11.9483955 L24.3118164,11.9483955 L24.3118164,16.7636641 L21.6629073,16.7636641 L21.6629073,4.717331 L24.1826013,4.717331 L24.1826013,5.71303062 L24.231057,5.71303062 C24.4787204,5.3865701 24.8205986,5.10092142 25.2567016,4.85607603 C25.6928047,4.61123064 26.2069679,4.48880978 26.7992066,4.48880978 C27.3806773,4.48880978 27.9083003,4.60306924 28.3820912,4.83159161 C28.8558822,5.06011398 29.2569833,5.37024683 29.5854066,5.76199946 C29.9138299,6.15375209 30.1668736,6.6080695 30.3445452,7.12496533 C30.5222168,7.64186117 30.6110513,8.18323342 30.6110513,8.74909833 Z M28.0429017,8.74909833 C28.0429017,8.48792991 28.0025224,8.23220633 27.9217625,7.98191993 C27.8410027,7.73163352 27.7225567,7.51127598 27.5664211,7.32084067 C27.4102854,7.13040536 27.2137728,6.97533894 26.9768773,6.85563675 C26.7399818,6.73593455 26.4654025,6.67608436 26.1531312,6.67608436 C25.8516279,6.67608436 25.5824325,6.73593455 25.345537,6.85563675 C25.1086415,6.97533894 24.906745,7.13312583 24.7398413,7.32900214 C24.5729377,7.52487846 24.4437239,7.74795647 24.3521961,7.99824287 C24.2606683,8.24852927 24.2149051,8.50425285 24.2149051,8.76542127 C24.2149051,9.02658969 24.2606683,9.28231327 24.3521961,9.53259967 C24.4437239,9.78288607 24.5729377,10.0059641 24.7398413,10.2018404 C24.906745,10.3977167 25.1086415,10.5555036 25.345537,10.6752058 C25.5824325,10.794908 25.8516279,10.8547582 26.1531312,10.8547582 C26.4654025,10.8547582 26.7399818,10.794908 26.9768773,10.6752058 C27.2137728,10.5555036 27.4102854,10.3977167 27.5664211,10.2018404 C27.7225567,10.0059641 27.8410027,9.78016561 27.9217625,9.5244382 C28.0025224,9.26871078 28.0429017,9.01026675 28.0429017,8.74909833 Z M37.5984137,9.30407844 L37.2592241,9.30407844 C36.9684887,9.30407844 36.6750657,9.31768076 36.3789464,9.3448858 C36.082827,9.37209085 35.8190155,9.42377966 35.587504,9.49995378 C35.3559925,9.5761279 35.1648638,9.68766691 35.0141121,9.83457414 C34.8633605,9.98148138 34.7879858,10.1746343 34.7879858,10.4140387 C34.7879858,10.5663869 34.8229812,10.6969692 34.892973,10.8057893 C34.9629649,10.9146095 35.0517993,11.0016644 35.1594791,11.0669565 C35.2671589,11.1322486 35.3909888,11.1784964 35.5309724,11.2057015 C35.6709561,11.2329065 35.8055538,11.2465089 35.9347696,11.2465089 C36.4731684,11.2465089 36.8850373,11.0968834 37.1703887,10.7976279 C37.4557401,10.4983724 37.5984137,10.0930233 37.5984137,9.5815685 L37.5984137,9.30407844 Z M32.8981867,5.82729124 C33.3719777,5.3702465 33.9238282,5.02746809 34.5537549,4.79894572 C35.1836815,4.57042336 35.8270585,4.45616389 36.483905,4.45616389 C37.1622876,4.45616389 37.7356737,4.54049826 38.2040807,4.70916953 C38.6724877,4.8778408 39.0520532,5.1390053 39.3427886,5.49267087 C39.633524,5.84633644 39.8461883,6.29249246 39.980788,6.83115233 C40.1153877,7.3698122 40.1826866,8.00912114 40.1826866,8.74909833 L40.1826866,12.8461574 L37.7599039,12.8461574 L37.7599039,11.9810414 L37.7114483,11.9810414 C37.5068567,12.3183839 37.197282,12.5795484 36.7827149,12.7645427 C36.3681478,12.949537 35.9185915,13.0420328 35.4340326,13.0420328 C35.1109933,13.0420328 34.777191,12.9985053 34.4326157,12.9114492 C34.0880405,12.8243931 33.7730819,12.682929 33.4877305,12.4870526 C33.2023791,12.2911763 32.9681791,12.0300118 32.7851235,11.7035513 C32.6020679,11.3770908 32.5105415,10.9744622 32.5105415,10.4956534 C32.5105415,9.90802446 32.6693668,9.4346638 32.9870221,9.07555722 C33.3046774,8.71645064 33.7138544,8.43896336 34.2145653,8.24308704 C34.7152762,8.04721073 35.2725106,7.91662848 35.8862853,7.85133637 C36.50006,7.78604427 37.0976737,7.7533987 37.6791445,7.7533987 L37.6791445,7.62281515 C37.6791445,7.2201805 37.5391629,6.92364997 37.2591955,6.73321466 C36.9792281,6.54277936 36.634658,6.44756313 36.2254749,6.44756313 C35.8485957,6.44756313 35.4851819,6.52917704 35.1352227,6.6924073 C34.7852634,6.85563756 34.4864566,7.05151094 34.2387931,7.28003331 L32.8981867,5.82729124 Z M48.2683771,7.34532509 C48.1176254,7.14944877 47.9130369,6.99166188 47.6546055,6.87195969 C47.396174,6.7522575 47.1323625,6.6924073 46.8631631,6.6924073 C46.5831957,6.6924073 46.3301521,6.74953704 46.1040246,6.86379822 C45.877897,6.9780594 45.6840764,7.13040536 45.5225567,7.32084067 C45.3610371,7.51127598 45.2345152,7.73163352 45.1429874,7.98191993 C45.0514596,8.23220633 45.0056964,8.49881176 45.0056964,8.78174421 C45.0056964,9.06467667 45.0487677,9.3312821 45.1349115,9.5815685 C45.2210553,9.8318549 45.3475771,10.0522125 45.5144808,10.2426478 C45.6813844,10.4330831 45.880589,10.5827086 46.1121005,10.6915287 C46.343612,10.8003489 46.6047315,10.8547582 46.8954669,10.8547582 C47.1646663,10.8547582 47.4311697,10.8030694 47.6949852,10.6996902 C47.9588006,10.596311 48.171465,10.4466855 48.3329846,10.2508092 L49.8028061,12.0626561 C49.4689988,12.3891166 49.0382862,12.6448402 48.5106553,12.8298345 C47.9830245,13.0148288 47.4230981,13.1073245 46.8308594,13.1073245 C46.1955487,13.1073245 45.6033189,13.0093879 45.0541521,12.8135115 C44.5049853,12.6176352 44.0285094,12.3319866 43.6247103,11.9565569 C43.2209112,11.5811273 42.9032606,11.1268099 42.6717491,10.5935911 C42.4402376,10.0603722 42.3244836,9.4564293 42.3244836,8.78174421 C42.3244836,8.11794115 42.4402376,7.51943916 42.6717491,6.9862203 C42.9032606,6.45300145 43.2209112,5.99868403 43.6247103,5.62325443 C44.0285094,5.24782482 44.5049853,4.95945569 45.0541521,4.75813836 C45.6033189,4.55682104 46.1901648,4.45616389 46.8147075,4.45616389 C47.1054428,4.45616389 47.3934819,4.48336852 47.6788333,4.53777861 C47.9641847,4.5921887 48.238764,4.66564121 48.5025794,4.75813836 C48.7663948,4.85063551 49.0086707,4.96489498 49.2294142,5.1009202 C49.4501577,5.23694542 49.6412864,5.38657091 49.8028061,5.54980118 L48.2683771,7.34532509 Z M55.1102295,6.72505319 L55.1102295,9.82641267 C55.1102295,10.2072833 55.1829123,10.492932 55.32828,10.6833673 C55.4736477,10.8738026 55.7347672,10.9690188 56.1116464,10.9690188 C56.2408621,10.9690188 56.3781517,10.9581369 56.5235194,10.9363729 C56.6688871,10.9146089 56.790025,10.8819633 56.8869368,10.8384352 L56.9192406,12.7971886 C56.736185,12.8624807 56.5046769,12.9196104 56.2247095,12.9685795 C55.9447422,13.0175486 55.664779,13.0420328 55.3848116,13.0420328 C54.8464127,13.0420328 54.3941645,12.9740212 54.0280533,12.837996 C53.6619421,12.7019707 53.3685191,12.5060974 53.1477756,12.2503699 C52.927032,11.9946425 52.7682068,11.6899506 52.671295,11.3362851 C52.5743832,10.9826195 52.525928,10.5881523 52.525928,10.1528716 L52.525928,6.72505319 L51.2337773,6.72505319 L51.2337773,4.717331 L52.5097761,4.717331 L52.5097761,2.57902525 L55.1102295,2.57902525 L55.1102295,4.717331 L57,4.717331 L57,6.72505319 L55.1102295,6.72505319 Z" id="impactly"></path>
                    <path d="M64.9967846,2.30671736 C64.9003211,2.27376409 64.787782,2.24630345 64.659164,2.2243346 C64.530546,2.20236575 64.4019299,2.1913815 64.2733119,2.1913815 C64.0267941,2.1913815 63.8285109,2.23531853 63.6784566,2.32319392 C63.5284023,2.4110693 63.4105042,2.52915008 63.3247588,2.6774398 C63.2390135,2.82572951 63.1800645,2.99323946 63.14791,3.17997465 C63.1157555,3.36670985 63.0996785,3.55344224 63.0996785,3.74017744 L63.0996785,4.56400507 L64.8842444,4.56400507 L64.8842444,6.59062104 L63.0996785,6.59062104 L63.0996785,12.7693283 L60.4630225,12.7693283 L60.4630225,6.59062104 L59,6.59062104 L59,4.56400507 L60.4630225,4.56400507 L60.4630225,3.77313054 C60.4630225,3.26784707 60.5166125,2.78728576 60.6237942,2.33143219 C60.7309759,1.87557862 60.9158615,1.47465319 61.1784566,1.12864385 C61.4410517,0.782634518 61.7947459,0.508028054 62.2395498,0.304816223 C62.6843538,0.101604392 63.2390106,0 63.903537,0 C64.1286185,0 64.3510171,0.0137303232 64.5707396,0.0411913815 C64.790462,0.0686524398 64.9914246,0.109843409 65.1736334,0.164765526 L64.9967846,2.30671736 Z M72.2491961,12.7693283 L72.2491961,11.6324461 L72.2170418,11.6324461 C72.1205783,11.8191813 71.9946417,11.9949295 71.8392283,12.1596958 C71.6838149,12.3244622 71.5016088,12.4672575 71.2926045,12.5880862 C71.0836002,12.7089148 70.8531631,12.8077732 70.6012862,12.8846641 C70.3494092,12.9615551 70.0841386,13 69.8054662,13 C69.2695579,13 68.8167221,12.9011417 68.4469453,12.7034221 C68.0771686,12.5057024 67.7770644,12.2503184 67.5466238,11.9372624 C67.3161832,11.6242063 67.1500541,11.2672179 67.0482315,10.8662864 C66.9464089,10.465355 66.8954984,10.0561914 66.8954984,9.63878327 L66.8954984,4.56400507 L69.5482315,4.56400507 L69.5482315,9.01267427 C69.5482315,9.24334716 69.5643085,9.46303233 69.596463,9.67173638 C69.6286175,9.88044042 69.6902461,10.0671728 69.7813505,10.2319392 C69.8724549,10.3967055 69.9930325,10.5257706 70.1430868,10.6191381 C70.2931412,10.7125057 70.4914243,10.7591888 70.7379421,10.7591888 C71.1988233,10.7591888 71.549838,10.5834407 71.7909968,10.2319392 C72.0321555,9.88043762 72.1527331,9.46852792 72.1527331,8.99619772 L72.1527331,4.56400507 L74.7893891,4.56400507 L74.7893891,12.7693283 L72.2491961,12.7693283 Z M77.3311897,12.7693283 L77.3311897,0.313054499 L80,0.313054499 L80,12.7693283 L77.3311897,12.7693283 Z" id="impactful"></path>
                </g>
            </g>
        </g>
    </g>
</svg>